<?xml version="1.0" encoding="utf-8"?>
<!-- Generator: Adobe Illustrator 23.0.4, SVG Export Plug-In . SVG Version: 6.00 Build 0)  -->
<svg version="1.1" id="Layer_1" xmlns="http://www.w3.org/2000/svg" xmlns:xlink="http://www.w3.org/1999/xlink" x="0px" y="0px"
	 viewBox="0 0 294 294" style="enable-background:new 0 0 294 294;" xml:space="preserve">
<style type="text/css">
	.st0{fill:#FFFFFF;}
</style>
<g>
	<circle class="st0" cx="147" cy="147" r="147"/>
	<path d="M147,30c31.25,0,60.63,12.17,82.73,34.27C251.83,86.37,264,115.75,264,147s-12.17,60.63-34.27,82.73
		C207.63,251.83,178.25,264,147,264s-60.63-12.17-82.73-34.27C42.17,207.63,30,178.25,30,147s12.17-60.63,34.27-82.73
		C86.37,42.17,115.75,30,147,30 M147,0C65.81,0,0,65.81,0,147s65.81,147,147,147s147-65.81,147-147S228.19,0,147,0L147,0z"/>
</g>
<g>
	<circle class="st0" cx="147" cy="147" r="75"/>
	<path d="M147,102c24.81,0,45,20.19,45,45s-20.19,45-45,45s-45-20.19-45-45S122.19,102,147,102 M147,72c-41.42,0-75,33.58-75,75
		s33.58,75,75,75s75-33.58,75-75S188.42,72,147,72L147,72z"/>
</g>
</svg>
